@startuml classes_backend_pipeline
set namespaceSeparator none
class "app.pipeline.validator.CompiledRuleCache" as app.pipeline.validator.CompiledRuleCache {
  _cache : Dict[CompiledRuleCacheKey, Any]
  __init__() -> None
  get_or_compile(rv: RuleVersion) -> Any
}
class "app.pipeline.validator.CompiledRuleCacheKey" as app.pipeline.validator.CompiledRuleCacheKey {
  rule_id : UUID
  rule_version_id : UUID
  version : int
  __init__(self, rule_id: uuid.UUID, rule_version_id: uuid.UUID, version: int) -> None
}
class "app.pipeline.validator.RuleValidationService" as app.pipeline.validator.RuleValidationService {
  _cache
  __init__(cache: Optional[CompiledRuleCache]) -> None
  validate_with_rule(rule_id: uuid.UUID, data: Any, db: Session) -> Tuple[bool, list[Any], Optional[dict[str, Any]], Optional[str]]
}
app.pipeline.validator.RuleValidationService --> app.pipeline.validator.CompiledRuleCache : _cache
app.pipeline.validator.CompiledRuleCache --> app.pipeline.validator.CompiledRuleCacheKey : _cache
@enduml
